<svg width="408" height="76" viewBox="0 0 408 76" fill="none" xmlns="http://www.w3.org/2000/svg">
<rect x="24" y="25" width="22" height="22" fill="white"/>
<path d="M0 25H24V47L0 25Z" fill="#722FDF"/>
<path d="M70 47H46L46 24.9999L70 47Z" fill="#722FDF"/>
<path d="M46 2C46 1.44772 46.4477 1 47 1H69C69.5523 1 70 1.44772 70 2V25H46V2Z" fill="white"/>
<path d="M0 2C0 1.44772 0.447715 1 1 1H23C23.5523 1 24 1.44772 24 2V25H0V2Z" fill="#722FDF"/>
<path d="M0 48C0 47.4477 0.447715 47 1 47H24V70C24 70.5523 23.5523 71 23 71H1C0.447716 71 0 70.5523 0 70V48Z" fill="white"/>
<path d="M46 47H70V70C70 70.5523 69.5523 71 69 71H47C46.4477 71 46 70.5523 46 70V47Z" fill="#722FDF"/>
<path d="M100.223 12.096C100.223 10.462 100.508 8.999 101.078 7.707C101.686 6.377 102.522 5.275 103.586 4.401C104.65 3.527 105.904 2.881 107.348 2.463C108.792 2.007 110.369 1.798 112.079 1.836C113.865 1.912 115.461 2.254 116.867 2.862C118.273 3.432 119.375 4.097 120.173 4.857C120.439 5.085 120.724 5.408 121.028 5.826C121.37 6.244 121.636 6.681 121.826 7.137C122.054 7.593 122.168 8.03 122.168 8.448C122.206 8.866 122.054 9.189 121.712 9.417C121.484 9.607 121.18 9.702 120.8 9.702C120.458 9.702 120.097 9.664 119.717 9.588C119.337 9.474 118.976 9.341 118.634 9.189C118.292 8.999 118.026 8.828 117.836 8.676C117.038 8.03 116.088 7.517 114.986 7.137C113.922 6.719 112.953 6.491 112.079 6.453C110.939 6.415 109.932 6.529 109.058 6.795C108.184 7.023 107.443 7.365 106.835 7.821C106.265 8.277 105.828 8.809 105.524 9.417C105.22 9.987 105.068 10.576 105.068 11.184C105.068 12.248 105.486 13.179 106.322 13.977C107.158 14.737 108.07 15.345 109.058 15.801C110.122 16.257 111.224 16.732 112.364 17.226C113.542 17.682 114.701 18.195 115.841 18.765C116.981 19.335 118.064 19.962 119.09 20.646C120.116 21.33 121.009 22.128 121.769 23.04C122.567 23.914 123.194 24.94 123.65 26.118C124.106 27.258 124.334 28.569 124.334 30.051C124.334 31.267 124.068 32.464 123.536 33.642C123.004 34.782 122.244 35.827 121.256 36.777C120.268 37.727 119.052 38.506 117.608 39.114C116.202 39.722 114.606 40.045 112.82 40.083C111.49 40.121 110.103 39.988 108.659 39.684C107.215 39.38 105.885 38.886 104.669 38.202C103.453 37.518 102.389 36.644 101.477 35.58C100.603 34.478 100.052 33.148 99.824 31.59C99.748 31.02 99.767 30.488 99.881 29.994C99.995 29.5 100.166 29.082 100.394 28.74C100.622 28.36 100.869 28.075 101.135 27.885C101.439 27.657 101.724 27.543 101.99 27.543C102.256 27.543 102.522 27.695 102.788 27.999C103.054 28.265 103.282 28.588 103.472 28.968C103.662 29.31 103.814 29.652 103.928 29.994C104.08 30.336 104.194 30.583 104.27 30.735C104.65 31.609 105.163 32.35 105.809 32.958C106.455 33.566 107.139 34.06 107.861 34.44C108.621 34.82 109.4 35.105 110.198 35.295C110.996 35.447 111.718 35.504 112.364 35.466C113.238 35.428 114.074 35.276 114.872 35.01C115.67 34.744 116.373 34.383 116.981 33.927C117.589 33.433 118.064 32.844 118.406 32.16C118.786 31.438 118.976 30.64 118.976 29.766C118.976 28.816 118.596 27.885 117.836 26.973C117.114 26.023 116.183 25.149 115.043 24.351C113.941 23.553 112.706 22.831 111.338 22.185C110.008 21.501 108.735 20.931 107.519 20.475C105.391 19.639 103.643 18.499 102.275 17.055C100.907 15.573 100.223 13.92 100.223 12.096ZM146.526 8.163C146.298 8.011 146.07 7.802 145.842 7.536C145.614 7.232 145.405 6.928 145.215 6.624C145.025 6.282 144.873 5.978 144.759 5.712C144.683 5.408 144.683 5.142 144.759 4.914C144.835 4.648 145.177 4.439 145.785 4.287C146.431 4.135 147.134 4.154 147.894 4.344C148.996 4.572 149.87 4.933 150.516 5.427C151.2 5.921 151.637 6.662 151.827 7.65C152.511 11.45 153.347 15.136 154.335 18.708C155.361 22.242 156.292 25.795 157.128 29.367C157.85 25.605 158.629 21.957 159.465 18.423C160.301 14.851 161.289 11.146 162.429 7.308C162.733 6.32 163.113 5.427 163.569 4.629C164.063 3.793 164.576 3.09 165.108 2.52C165.64 1.95 166.172 1.513 166.704 1.209C167.274 0.904999 167.768 0.790999 168.186 0.866998C168.642 0.942997 168.889 1.361 168.927 2.121C168.965 2.843 168.908 3.679 168.756 4.629C168.604 5.579 168.414 6.51 168.186 7.422C167.958 8.296 167.787 8.923 167.673 9.303C167.559 9.721 167.369 10.405 167.103 11.355C166.837 12.305 166.514 13.426 166.134 14.718C165.792 15.972 165.412 17.34 164.994 18.822C164.614 20.266 164.215 21.729 163.797 23.211C163.417 24.655 163.037 26.061 162.657 27.429C162.315 28.759 162.011 29.918 161.745 30.906C161.289 32.616 160.795 34.06 160.263 35.238C159.731 36.378 159.18 37.29 158.61 37.974C158.078 38.658 157.546 39.133 157.014 39.399C156.482 39.703 156.007 39.855 155.589 39.855C155.247 39.855 154.943 39.684 154.677 39.342C154.411 39 154.183 38.601 153.993 38.145C153.803 37.651 153.632 37.138 153.48 36.606C153.366 36.074 153.271 35.637 153.195 35.295C152.891 34.003 152.549 32.654 152.169 31.248C151.827 29.842 151.485 28.455 151.143 27.087C150.801 25.681 150.459 24.313 150.117 22.983C149.813 21.615 149.528 20.323 149.262 19.107C149.034 20.057 148.673 21.254 148.179 22.698C147.685 24.104 147.115 25.605 146.469 27.201C145.861 28.759 145.177 30.317 144.417 31.875C143.695 33.433 142.954 34.839 142.194 36.093C141.472 37.347 140.769 38.354 140.085 39.114C139.401 39.912 138.793 40.311 138.261 40.311C137.843 40.311 137.482 40.273 137.178 40.197C136.912 40.121 136.722 39.912 136.608 39.57C136.57 39.418 136.551 39.19 136.551 38.886C136.551 38.544 136.57 38.202 136.608 37.86C136.646 37.518 136.665 37.214 136.665 36.948C136.703 36.644 136.703 36.435 136.665 36.321C135.221 31.267 133.853 26.422 132.561 21.786C131.307 17.15 130.015 12.723 128.685 8.505C128.609 8.277 128.419 7.84 128.115 7.194C127.849 6.548 127.583 5.864 127.317 5.142C127.051 4.42 126.842 3.755 126.69 3.147C126.576 2.501 126.633 2.102 126.861 1.95C127.317 1.646 127.925 1.665 128.685 2.007C129.483 2.311 130.262 2.767 131.022 3.375C131.82 3.983 132.523 4.667 133.131 5.427C133.739 6.187 134.119 6.833 134.271 7.365C134.575 8.391 134.898 9.588 135.24 10.956C135.62 12.286 136 13.711 136.38 15.231C136.76 16.713 137.14 18.233 137.52 19.791C137.9 21.349 138.242 22.831 138.546 24.237C138.85 25.605 139.116 26.878 139.344 28.056C139.572 29.234 139.743 30.184 139.857 30.906C140.617 29.31 141.377 27.391 142.137 25.149C142.935 22.907 143.657 20.665 144.303 18.423C144.949 16.181 145.481 14.129 145.899 12.267C146.317 10.367 146.526 8.999 146.526 8.163ZM177.742 33.243C177.704 32.521 177.666 31.818 177.628 31.134C177.59 30.45 177.571 29.899 177.571 29.481C177.571 28.455 177.552 27.334 177.514 26.118C177.476 24.902 177.438 23.515 177.4 21.957C177.4 20.399 177.381 18.632 177.343 16.656C177.305 14.68 177.286 12.4 177.286 9.816C177.286 9.436 177.248 8.923 177.172 8.277C177.096 7.593 176.906 6.871 176.602 6.111C175.728 6.111 175.044 6.13 174.55 6.168C174.056 6.168 173.486 6.149 172.84 6.111C172.574 6.111 172.27 6.016 171.928 5.826C171.586 5.636 171.244 5.408 170.902 5.142C170.598 4.838 170.332 4.534 170.104 4.23C169.914 3.888 169.819 3.565 169.819 3.261C169.819 3.109 169.895 2.976 170.047 2.862C170.237 2.748 170.465 2.672 170.731 2.634C171.035 2.558 171.358 2.52 171.7 2.52C172.042 2.482 172.384 2.444 172.726 2.406C173.068 2.368 173.809 2.311 174.949 2.235C176.127 2.159 177.381 2.083 178.711 2.007C180.079 1.931 181.333 1.874 182.473 1.836C183.651 1.76 184.411 1.722 184.753 1.722C185.323 1.722 185.931 1.836 186.577 2.064C187.261 2.254 187.603 2.52 187.603 2.862C187.603 3.28 187.508 3.679 187.318 4.059C187.166 4.439 186.938 4.8 186.634 5.142C186.368 5.446 186.064 5.693 185.722 5.883C185.418 6.073 185.133 6.168 184.867 6.168C184.373 6.13 183.841 6.073 183.271 5.997C182.701 5.921 181.903 5.921 180.877 5.997C181.409 6.871 181.827 7.821 182.131 8.847C182.435 9.835 182.587 10.861 182.587 11.925C182.587 13.939 182.587 15.839 182.587 17.625C182.587 19.373 182.549 21.045 182.473 22.641C182.435 24.199 182.359 25.7 182.245 27.144C182.169 28.588 182.055 30.013 181.903 31.419L181.675 33.129C182.093 33.129 182.473 33.129 182.815 33.129C183.195 33.129 183.575 33.148 183.955 33.186C184.525 33.224 185.019 33.281 185.437 33.357C185.893 33.433 186.33 33.528 186.748 33.642C186.862 33.718 187.033 33.851 187.261 34.041C187.489 34.231 187.698 34.478 187.888 34.782C188.116 35.048 188.306 35.333 188.458 35.637C188.648 35.941 188.762 36.226 188.8 36.492C188.838 36.72 188.762 36.986 188.572 37.29C188.382 37.556 188.154 37.803 187.888 38.031C187.622 38.259 187.337 38.449 187.033 38.601C186.767 38.715 186.52 38.715 186.292 38.601C185.418 38.183 184.297 37.898 182.929 37.746C181.561 37.556 180.022 37.499 178.312 37.575C176.906 37.651 175.652 37.727 174.55 37.803C173.486 37.879 172.536 38.05 171.7 38.316C171.472 38.392 171.187 38.297 170.845 38.031C170.541 37.765 170.37 37.575 170.332 37.461C170.294 37.005 170.389 36.606 170.617 36.264C170.845 35.884 171.111 35.561 171.415 35.295C171.757 34.991 172.099 34.763 172.441 34.611C172.783 34.421 173.049 34.288 173.239 34.212C174.417 33.832 175.918 33.528 177.742 33.3V33.243ZM194.061 7.137C193.643 7.099 193.187 6.966 192.693 6.738C192.199 6.472 191.743 6.168 191.325 5.826C190.945 5.484 190.641 5.123 190.413 4.743C190.185 4.325 190.147 3.907 190.299 3.489C190.413 3.185 190.812 3.09 191.496 3.204C192.218 3.28 193.073 3.337 194.061 3.375C195.201 3.413 196.493 3.394 197.937 3.318C199.381 3.242 200.863 3.147 202.383 3.033C203.941 2.919 205.48 2.786 207 2.634C208.558 2.444 209.983 2.254 211.275 2.064C211.541 2.026 211.883 2.045 212.301 2.121C212.719 2.197 213.118 2.311 213.498 2.463C213.878 2.577 214.201 2.729 214.467 2.919C214.771 3.109 214.923 3.318 214.923 3.546C214.923 3.774 214.828 4.059 214.638 4.401C214.448 4.743 214.182 5.104 213.84 5.484C213.498 5.826 213.08 6.149 212.586 6.453C212.092 6.757 211.56 6.947 210.99 7.023C210.002 7.175 209.052 7.308 208.14 7.422C207.266 7.498 206.373 7.555 205.461 7.593C204.549 7.631 203.599 7.669 202.611 7.707C201.623 7.707 200.54 7.707 199.362 7.707C199.4 9.455 199.438 11.165 199.476 12.837C199.514 14.509 199.495 16.01 199.419 17.34C200.559 17.302 201.585 17.264 202.497 17.226C203.447 17.15 204.359 17.093 205.233 17.055C206.107 16.979 206.981 16.903 207.855 16.827C208.767 16.751 209.736 16.656 210.762 16.542C210.99 16.504 211.294 16.466 211.674 16.428C212.054 16.352 212.434 16.314 212.814 16.314C213.232 16.276 213.612 16.295 213.954 16.371C214.296 16.447 214.505 16.618 214.581 16.884C214.733 17.34 214.676 17.872 214.41 18.48C214.144 19.088 213.764 19.677 213.27 20.247C212.814 20.779 212.301 21.235 211.731 21.615C211.161 21.995 210.686 22.185 210.306 22.185H199.419C199.419 23.439 199.381 24.826 199.305 26.346C199.267 27.866 199.172 29.234 199.02 30.45C198.868 31.78 198.602 33.034 198.222 34.212C197.88 35.352 197.5 36.359 197.082 37.233C196.664 38.107 196.246 38.791 195.828 39.285C195.41 39.817 195.049 40.083 194.745 40.083C194.479 40.083 194.137 39.836 193.719 39.342C193.301 38.886 193.092 38.392 193.092 37.86C193.092 37.822 193.149 37.575 193.263 37.119C193.377 36.663 193.453 36.302 193.491 36.036C193.605 35.124 193.7 34.307 193.776 33.585C193.852 32.863 193.909 32.141 193.947 31.419C193.985 30.697 194.004 29.937 194.004 29.139C194.042 28.303 194.061 27.334 194.061 26.232V7.137ZM228.487 7.422C227.119 7.46 225.732 7.479 224.326 7.479C222.92 7.479 221.609 7.422 220.393 7.308C220.203 7.308 219.899 7.213 219.481 7.023C219.101 6.833 218.702 6.605 218.284 6.339C217.866 6.073 217.486 5.788 217.144 5.484C216.84 5.142 216.688 4.819 216.688 4.515C216.688 4.287 216.783 4.116 216.973 4.002C217.163 3.85 217.391 3.736 217.657 3.66C217.961 3.584 218.265 3.527 218.569 3.489C218.911 3.413 219.196 3.375 219.424 3.375C220.032 3.337 221.058 3.28 222.502 3.204C223.984 3.128 225.618 3.052 227.404 2.976C229.19 2.862 231.014 2.786 232.876 2.748C234.776 2.672 236.448 2.596 237.892 2.52C238.006 2.52 238.31 2.52 238.804 2.52C239.298 2.52 239.792 2.558 240.286 2.634C240.818 2.71 241.293 2.824 241.711 2.976C242.167 3.128 242.395 3.375 242.395 3.717C242.395 3.945 242.319 4.23 242.167 4.572C242.015 4.914 241.806 5.237 241.54 5.541C241.274 5.845 240.97 6.13 240.628 6.396C240.286 6.624 239.944 6.776 239.602 6.852C238.956 6.966 238.196 7.061 237.322 7.137C236.448 7.175 235.289 7.194 233.845 7.194V21.729C233.845 22.945 233.75 24.427 233.56 26.175C233.37 27.923 233.066 29.671 232.648 31.419C232.23 33.129 231.679 34.706 230.995 36.15C230.349 37.594 229.57 38.601 228.658 39.171C228.24 39.437 227.765 39.551 227.233 39.513C226.739 39.513 226.397 39.437 226.207 39.285C226.017 39.133 225.979 38.905 226.093 38.601C226.207 38.297 226.302 38.05 226.378 37.86C226.834 36.682 227.195 35.409 227.461 34.041C227.765 32.635 227.993 31.21 228.145 29.766C228.297 28.322 228.392 26.878 228.43 25.434C228.468 23.952 228.487 22.546 228.487 21.216V7.422Z" fill="white"/>
<path d="M247.104 6.795C247.104 6.529 246.914 6.282 246.534 6.054C246.192 5.826 245.812 5.541 245.394 5.199C244.976 4.857 244.577 4.458 244.197 4.002C243.855 3.508 243.684 2.881 243.684 2.121C243.684 1.779 243.741 1.532 243.855 1.38C243.969 1.228 244.102 1.114 244.254 1.038C244.406 0.961998 244.558 0.923998 244.71 0.923998C244.862 0.923998 244.995 0.923998 245.109 0.923998C245.717 0.923998 246.363 1.019 247.047 1.209C247.769 1.361 248.434 1.589 249.042 1.893C249.688 2.159 250.258 2.463 250.752 2.805C251.284 3.147 251.664 3.489 251.892 3.831C252.766 3.299 253.83 2.938 255.084 2.748C256.376 2.52 257.611 2.406 258.789 2.406C260.385 2.406 261.886 2.634 263.292 3.09C264.736 3.546 266.009 4.268 267.111 5.256C268.365 6.396 269.239 7.802 269.733 9.474C270.265 11.146 270.531 12.78 270.531 14.376C270.531 16.086 270.056 17.549 269.106 18.765C268.156 19.943 266.959 20.912 265.515 21.672C264.109 22.432 262.589 23.002 260.955 23.382C259.321 23.724 257.82 23.895 256.452 23.895C255.198 23.895 254.438 23.743 254.172 23.439C253.906 23.097 253.773 22.812 253.773 22.584C253.773 22.318 254.058 22.071 254.628 21.843C255.198 21.577 255.901 21.292 256.737 20.988C257.573 20.684 258.485 20.342 259.473 19.962C260.499 19.544 261.43 19.05 262.266 18.48C263.102 17.91 263.805 17.245 264.375 16.485C264.945 15.725 265.23 14.813 265.23 13.749C265.23 13.065 265.078 12.286 264.774 11.412C264.47 10.538 264.014 9.721 263.406 8.961C262.798 8.163 262.038 7.498 261.126 6.966C260.252 6.396 259.245 6.111 258.105 6.111C257.117 6.111 256.148 6.244 255.198 6.51C254.248 6.776 253.298 7.213 252.348 7.821C252.348 9.455 252.367 11.317 252.405 13.407C252.443 15.459 252.462 17.454 252.462 19.392C252.462 21.33 252.405 23.23 252.291 25.092C252.215 26.954 252.12 28.74 252.006 30.45C251.968 31.248 251.835 32.198 251.607 33.3C251.417 34.364 251.132 35.39 250.752 36.378C250.41 37.328 250.011 38.145 249.555 38.829C249.137 39.513 248.681 39.855 248.187 39.855C248.111 39.855 247.978 39.817 247.788 39.741C247.636 39.665 247.465 39.532 247.275 39.342C247.085 39.19 246.895 38.981 246.705 38.715C246.553 38.449 246.458 38.145 246.42 37.803C246.572 37.119 246.743 36.055 246.933 34.611C247.123 33.129 247.237 31.609 247.275 30.051C247.313 28.607 247.332 26.992 247.332 25.206C247.37 23.42 247.37 21.539 247.332 19.563C247.332 17.549 247.313 15.459 247.275 13.293C247.237 11.127 247.18 8.961 247.104 6.795ZM280.331 33.243C280.293 32.521 280.255 31.818 280.217 31.134C280.179 30.45 280.16 29.899 280.16 29.481C280.16 28.455 280.141 27.334 280.103 26.118C280.065 24.902 280.027 23.515 279.989 21.957C279.989 20.399 279.97 18.632 279.932 16.656C279.894 14.68 279.875 12.4 279.875 9.816C279.875 9.436 279.837 8.923 279.761 8.277C279.685 7.593 279.495 6.871 279.191 6.111C278.317 6.111 277.633 6.13 277.139 6.168C276.645 6.168 276.075 6.149 275.429 6.111C275.163 6.111 274.859 6.016 274.517 5.826C274.175 5.636 273.833 5.408 273.491 5.142C273.187 4.838 272.921 4.534 272.693 4.23C272.503 3.888 272.408 3.565 272.408 3.261C272.408 3.109 272.484 2.976 272.636 2.862C272.826 2.748 273.054 2.672 273.32 2.634C273.624 2.558 273.947 2.52 274.289 2.52C274.631 2.482 274.973 2.444 275.315 2.406C275.657 2.368 276.398 2.311 277.538 2.235C278.716 2.159 279.97 2.083 281.3 2.007C282.668 1.931 283.922 1.874 285.062 1.836C286.24 1.76 287 1.722 287.342 1.722C287.912 1.722 288.52 1.836 289.166 2.064C289.85 2.254 290.192 2.52 290.192 2.862C290.192 3.28 290.097 3.679 289.907 4.059C289.755 4.439 289.527 4.8 289.223 5.142C288.957 5.446 288.653 5.693 288.311 5.883C288.007 6.073 287.722 6.168 287.456 6.168C286.962 6.13 286.43 6.073 285.86 5.997C285.29 5.921 284.492 5.921 283.466 5.997C283.998 6.871 284.416 7.821 284.72 8.847C285.024 9.835 285.176 10.861 285.176 11.925C285.176 13.939 285.176 15.839 285.176 17.625C285.176 19.373 285.138 21.045 285.062 22.641C285.024 24.199 284.948 25.7 284.834 27.144C284.758 28.588 284.644 30.013 284.492 31.419L284.264 33.129C284.682 33.129 285.062 33.129 285.404 33.129C285.784 33.129 286.164 33.148 286.544 33.186C287.114 33.224 287.608 33.281 288.026 33.357C288.482 33.433 288.919 33.528 289.337 33.642C289.451 33.718 289.622 33.851 289.85 34.041C290.078 34.231 290.287 34.478 290.477 34.782C290.705 35.048 290.895 35.333 291.047 35.637C291.237 35.941 291.351 36.226 291.389 36.492C291.427 36.72 291.351 36.986 291.161 37.29C290.971 37.556 290.743 37.803 290.477 38.031C290.211 38.259 289.926 38.449 289.622 38.601C289.356 38.715 289.109 38.715 288.881 38.601C288.007 38.183 286.886 37.898 285.518 37.746C284.15 37.556 282.611 37.499 280.901 37.575C279.495 37.651 278.241 37.727 277.139 37.803C276.075 37.879 275.125 38.05 274.289 38.316C274.061 38.392 273.776 38.297 273.434 38.031C273.13 37.765 272.959 37.575 272.921 37.461C272.883 37.005 272.978 36.606 273.206 36.264C273.434 35.884 273.7 35.561 274.004 35.295C274.346 34.991 274.688 34.763 275.03 34.611C275.372 34.421 275.638 34.288 275.828 34.212C277.006 33.832 278.507 33.528 280.331 33.3V33.243ZM305.2 19.791C304.06 18.157 302.939 16.637 301.837 15.231C300.773 13.825 299.557 12.324 298.189 10.728C297.885 10.386 297.543 9.987 297.163 9.531C296.783 9.075 296.422 8.638 296.08 8.22C295.738 7.764 295.472 7.346 295.282 6.966C295.092 6.548 295.054 6.225 295.168 5.997C295.244 5.617 295.548 5.446 296.08 5.484C296.65 5.484 297.258 5.579 297.904 5.769C298.588 5.959 299.215 6.187 299.785 6.453C300.355 6.681 300.716 6.852 300.868 6.966C301.666 7.536 302.426 8.182 303.148 8.904C303.87 9.626 304.535 10.386 305.143 11.184C305.789 11.982 306.359 12.78 306.853 13.578C307.385 14.338 307.86 15.022 308.278 15.63C308.658 15.022 309.095 14.319 309.589 13.521C310.083 12.723 310.577 11.925 311.071 11.127C311.603 10.291 312.116 9.474 312.61 8.676C313.142 7.878 313.636 7.156 314.092 6.51C314.662 5.712 315.289 5.009 315.973 4.401C316.695 3.755 317.417 3.261 318.139 2.919C318.861 2.539 319.545 2.311 320.191 2.235C320.837 2.121 321.369 2.178 321.787 2.406C322.053 2.558 322.091 2.938 321.901 3.546C321.711 4.116 321.388 4.8 320.932 5.598C320.476 6.396 319.944 7.27 319.336 8.22C318.728 9.132 318.177 9.987 317.683 10.785C316.885 12.039 316.03 13.35 315.118 14.718C314.206 16.048 313.085 17.682 311.755 19.62C312.591 20.836 313.351 21.938 314.035 22.926C314.719 23.914 315.346 24.826 315.916 25.662C316.524 26.46 317.075 27.22 317.569 27.942C318.063 28.664 318.576 29.386 319.108 30.108C319.564 30.678 320.077 31.381 320.647 32.217C321.217 33.015 321.73 33.794 322.186 34.554C322.642 35.314 322.984 35.998 323.212 36.606C323.478 37.214 323.497 37.632 323.269 37.86C323.003 38.164 322.585 38.278 322.015 38.202C321.445 38.088 320.818 37.86 320.134 37.518C319.45 37.138 318.728 36.644 317.968 36.036C317.246 35.39 316.562 34.687 315.916 33.927C315.498 33.433 314.985 32.787 314.377 31.989C313.769 31.191 313.123 30.355 312.439 29.481C311.793 28.569 311.128 27.657 310.444 26.745C309.798 25.833 309.209 24.997 308.677 24.237C307.347 26.289 305.979 28.303 304.573 30.279C303.167 32.217 301.913 33.832 300.811 35.124C300.431 35.58 299.861 36.036 299.101 36.492C298.379 36.91 297.619 37.271 296.821 37.575C296.023 37.841 295.301 38.012 294.655 38.088C294.009 38.126 293.572 37.993 293.344 37.689C293.23 37.499 293.192 37.29 293.23 37.062C293.306 36.796 293.458 36.473 293.686 36.093C293.952 35.713 294.294 35.257 294.712 34.725C295.13 34.155 295.662 33.452 296.308 32.616C297.942 30.526 299.481 28.417 300.925 26.289C302.369 24.123 303.794 21.957 305.2 19.791ZM334.748 19.107C336.648 18.955 338.491 18.822 340.277 18.708C342.101 18.594 343.925 18.518 345.749 18.48C346.813 18.442 347.611 18.575 348.143 18.879C348.675 19.145 348.96 19.373 348.998 19.563C349.036 19.867 348.96 20.247 348.77 20.703C348.618 21.159 348.371 21.615 348.029 22.071C347.687 22.527 347.288 22.926 346.832 23.268C346.376 23.572 345.901 23.724 345.407 23.724C343.697 23.724 341.892 23.705 339.992 23.667C338.13 23.591 336.344 23.515 334.634 23.439C334.672 25.491 334.577 27.562 334.349 29.652C334.159 31.704 333.912 33.357 333.608 34.611C334.216 34.687 335.185 34.763 336.515 34.839C337.845 34.915 339.536 34.953 341.588 34.953C343.488 34.953 345.179 34.858 346.661 34.668C348.143 34.44 349.492 34.212 350.708 33.984C350.936 34.212 351.031 34.516 350.993 34.896C350.993 35.276 350.917 35.675 350.765 36.093C350.613 36.473 350.423 36.834 350.195 37.176C349.967 37.48 349.758 37.689 349.568 37.803C349.036 38.107 347.991 38.468 346.433 38.886C344.875 39.266 343.032 39.494 340.904 39.57C340.144 39.608 339.327 39.608 338.453 39.57C337.617 39.57 336.8 39.532 336.002 39.456C335.204 39.418 334.463 39.342 333.779 39.228C333.133 39.152 332.639 39.076 332.297 39C332.145 39.228 331.936 39.456 331.67 39.684C331.404 39.912 331.1 40.102 330.758 40.254C330.454 40.444 330.112 40.577 329.732 40.653C329.39 40.729 329.067 40.71 328.763 40.596C328.497 40.482 328.326 40.292 328.25 40.026C328.212 39.76 328.212 39.437 328.25 39.057C328.288 38.715 328.345 38.335 328.421 37.917C328.535 37.499 328.63 37.081 328.706 36.663C329.048 34.117 329.257 31.571 329.333 29.025C329.447 26.479 329.504 23.99 329.504 21.558C329.504 19.126 329.466 16.77 329.39 14.49C329.314 12.21 329.257 10.044 329.219 7.992C328.421 7.688 327.718 7.308 327.11 6.852C326.502 6.358 326.065 5.75 325.799 5.028C325.723 4.8 325.742 4.572 325.856 4.344C325.97 4.116 326.122 3.926 326.312 3.774C326.54 3.584 326.768 3.451 326.996 3.375C327.224 3.261 327.395 3.223 327.509 3.261C328.877 3.831 330.416 4.116 332.126 4.116C334.786 4.078 337.256 3.945 339.536 3.717C341.854 3.451 344.286 3.204 346.832 2.976C347.098 2.938 347.421 2.957 347.801 3.033C348.219 3.071 348.599 3.147 348.941 3.261C349.321 3.375 349.625 3.527 349.853 3.717C350.119 3.869 350.252 4.059 350.252 4.287C350.252 4.591 350.138 4.933 349.91 5.313C349.682 5.693 349.397 6.073 349.055 6.453C348.713 6.795 348.314 7.118 347.858 7.422C347.44 7.688 347.041 7.859 346.661 7.935C344.609 8.125 342.633 8.258 340.733 8.334C338.871 8.372 336.838 8.391 334.634 8.391L334.748 19.107ZM354.857 9.075C354.363 8.315 353.831 7.441 353.261 6.453C352.729 5.465 352.463 4.496 352.463 3.546C352.463 3.242 352.501 2.957 352.577 2.691C352.691 2.425 353.014 2.292 353.546 2.292C354.116 2.292 354.648 2.387 355.142 2.577C355.636 2.767 356.092 3.014 356.51 3.318C357.194 3.85 357.783 4.382 358.277 4.914C358.809 5.408 359.227 5.978 359.531 6.624C359.873 7.27 360.12 7.992 360.272 8.79C360.424 9.588 360.5 10.5 360.5 11.526C360.5 12.286 360.481 13.084 360.443 13.92C360.443 14.718 360.424 15.63 360.386 16.656C360.348 17.682 360.31 18.841 360.272 20.133C360.272 21.425 360.272 22.907 360.272 24.579C360.272 26.517 360.215 28.474 360.101 30.45C359.987 32.426 359.797 34.174 359.531 35.694C362.153 35.732 364.642 35.789 366.998 35.865C369.354 35.941 371.862 36.074 374.522 36.264C375.738 36.34 376.745 36.473 377.543 36.663C378.379 36.853 378.797 37.157 378.797 37.575C378.797 37.841 378.683 38.145 378.455 38.487C378.265 38.791 377.999 39.076 377.657 39.342C377.315 39.646 376.954 39.893 376.574 40.083C376.194 40.273 375.833 40.368 375.491 40.368C372.261 40.368 369.088 40.368 365.972 40.368C362.856 40.368 359.531 40.33 355.997 40.254C355.693 40.254 355.389 40.121 355.085 39.855C354.781 39.627 354.515 39.342 354.287 39C354.059 38.658 353.869 38.297 353.717 37.917C353.565 37.499 353.489 37.119 353.489 36.777C353.489 36.359 353.679 36.093 354.059 35.979C354.477 35.827 354.914 35.713 355.37 35.637C355.294 34.763 355.218 33.737 355.142 32.559C355.066 31.381 355.028 30.241 355.028 29.139C355.028 27.505 354.99 25.054 354.914 21.786C354.876 18.518 354.857 14.281 354.857 9.075ZM381.494 12.096C381.494 10.462 381.779 8.999 382.349 7.707C382.957 6.377 383.793 5.275 384.857 4.401C385.921 3.527 387.175 2.881 388.619 2.463C390.063 2.007 391.64 1.798 393.35 1.836C395.136 1.912 396.732 2.254 398.138 2.862C399.544 3.432 400.646 4.097 401.444 4.857C401.71 5.085 401.995 5.408 402.299 5.826C402.641 6.244 402.907 6.681 403.097 7.137C403.325 7.593 403.439 8.03 403.439 8.448C403.477 8.866 403.325 9.189 402.983 9.417C402.755 9.607 402.451 9.702 402.071 9.702C401.729 9.702 401.368 9.664 400.988 9.588C400.608 9.474 400.247 9.341 399.905 9.189C399.563 8.999 399.297 8.828 399.107 8.676C398.309 8.03 397.359 7.517 396.257 7.137C395.193 6.719 394.224 6.491 393.35 6.453C392.21 6.415 391.203 6.529 390.329 6.795C389.455 7.023 388.714 7.365 388.106 7.821C387.536 8.277 387.099 8.809 386.795 9.417C386.491 9.987 386.339 10.576 386.339 11.184C386.339 12.248 386.757 13.179 387.593 13.977C388.429 14.737 389.341 15.345 390.329 15.801C391.393 16.257 392.495 16.732 393.635 17.226C394.813 17.682 395.972 18.195 397.112 18.765C398.252 19.335 399.335 19.962 400.361 20.646C401.387 21.33 402.28 22.128 403.04 23.04C403.838 23.914 404.465 24.94 404.921 26.118C405.377 27.258 405.605 28.569 405.605 30.051C405.605 31.267 405.339 32.464 404.807 33.642C404.275 34.782 403.515 35.827 402.527 36.777C401.539 37.727 400.323 38.506 398.879 39.114C397.473 39.722 395.877 40.045 394.091 40.083C392.761 40.121 391.374 39.988 389.93 39.684C388.486 39.38 387.156 38.886 385.94 38.202C384.724 37.518 383.66 36.644 382.748 35.58C381.874 34.478 381.323 33.148 381.095 31.59C381.019 31.02 381.038 30.488 381.152 29.994C381.266 29.5 381.437 29.082 381.665 28.74C381.893 28.36 382.14 28.075 382.406 27.885C382.71 27.657 382.995 27.543 383.261 27.543C383.527 27.543 383.793 27.695 384.059 27.999C384.325 28.265 384.553 28.588 384.743 28.968C384.933 29.31 385.085 29.652 385.199 29.994C385.351 30.336 385.465 30.583 385.541 30.735C385.921 31.609 386.434 32.35 387.08 32.958C387.726 33.566 388.41 34.06 389.132 34.44C389.892 34.82 390.671 35.105 391.469 35.295C392.267 35.447 392.989 35.504 393.635 35.466C394.509 35.428 395.345 35.276 396.143 35.01C396.941 34.744 397.644 34.383 398.252 33.927C398.86 33.433 399.335 32.844 399.677 32.16C400.057 31.438 400.247 30.64 400.247 29.766C400.247 28.816 399.867 27.885 399.107 26.973C398.385 26.023 397.454 25.149 396.314 24.351C395.212 23.553 393.977 22.831 392.609 22.185C391.279 21.501 390.006 20.931 388.79 20.475C386.662 19.639 384.914 18.499 383.546 17.055C382.178 15.573 381.494 13.92 381.494 12.096Z" fill="#722FDF"/>
<path d="M99.62 71V57.76H101.36L106.1 64.04L110.76 57.76H112.5V71H111V60.04L106.1 66.34L101.12 60.04V71H99.62ZM119.633 71.16C118.66 71.16 117.807 70.9333 117.073 70.48C116.353 70.0133 115.793 69.3867 115.393 68.6C114.993 67.8133 114.793 66.9467 114.793 66C114.793 65.04 114.993 64.1733 115.393 63.4C115.793 62.6133 116.353 61.9933 117.073 61.54C117.807 61.0733 118.66 60.84 119.633 60.84C120.46 60.84 121.167 61 121.753 61.32C122.353 61.64 122.84 62.0733 123.213 62.62V61H124.713V71H123.213V69.4C122.84 69.9333 122.353 70.36 121.753 70.68C121.167 71 120.46 71.16 119.633 71.16ZM119.833 69.8C120.58 69.8 121.207 69.6267 121.713 69.28C122.233 68.9333 122.627 68.4733 122.893 67.9C123.16 67.3133 123.293 66.68 123.293 66C123.293 65.3067 123.16 64.6733 122.893 64.1C122.627 63.5267 122.233 63.0667 121.713 62.72C121.207 62.3733 120.58 62.2 119.833 62.2C119.1 62.2 118.467 62.3733 117.933 62.72C117.4 63.0667 116.993 63.5267 116.713 64.1C116.433 64.6733 116.293 65.3067 116.293 66C116.293 66.68 116.433 67.3133 116.713 67.9C116.993 68.4733 117.4 68.9333 117.933 69.28C118.467 69.6267 119.1 69.8 119.833 69.8ZM127.308 71V57H128.808V65.96L133.628 61H135.728L131.708 64.94L136.028 71H134.188L130.688 65.98L128.808 67.84V71H127.308ZM137.287 59.32V57.36H138.907V59.32H137.287ZM137.347 71V61H138.847V71H137.347ZM141.448 71V61H142.948V62.56C143.308 62.08 143.748 61.6733 144.268 61.34C144.788 61.0067 145.455 60.84 146.268 60.84C146.962 60.84 147.608 61.0067 148.208 61.34C148.822 61.66 149.315 62.1467 149.688 62.8C150.075 63.44 150.268 64.2333 150.268 65.18V71H148.768V65.22C148.768 64.3133 148.508 63.5867 147.988 63.04C147.468 62.48 146.795 62.2 145.968 62.2C145.408 62.2 144.902 62.3267 144.448 62.58C143.995 62.8333 143.628 63.1933 143.348 63.66C143.082 64.1133 142.948 64.64 142.948 65.24V71H141.448ZM157.357 75.12C156.103 75.12 155.083 74.8467 154.297 74.3C153.51 73.7667 152.977 73.0667 152.697 72.2H154.357C154.557 72.6933 154.903 73.0733 155.397 73.34C155.89 73.62 156.517 73.76 157.277 73.76C158.423 73.76 159.257 73.4867 159.777 72.94C160.31 72.4067 160.577 71.6267 160.577 70.6V69.22C160.203 69.7533 159.717 70.1867 159.117 70.52C158.53 70.84 157.823 71 156.997 71C156.023 71 155.17 70.78 154.437 70.34C153.717 69.8867 153.157 69.2733 152.757 68.5C152.357 67.7267 152.157 66.8667 152.157 65.92C152.157 64.96 152.357 64.1 152.757 63.34C153.157 62.5667 153.717 61.96 154.437 61.52C155.17 61.0667 156.023 60.84 156.997 60.84C157.823 60.84 158.53 61 159.117 61.32C159.717 61.6267 160.203 62.0533 160.577 62.6V61H162.077V70.7C162.077 72.1267 161.663 73.22 160.837 73.98C160.023 74.74 158.863 75.12 157.357 75.12ZM157.197 69.64C157.93 69.64 158.55 69.4733 159.057 69.14C159.577 68.8067 159.97 68.36 160.237 67.8C160.517 67.2267 160.657 66.6 160.657 65.92C160.657 65.2267 160.517 64.6 160.237 64.04C159.97 63.48 159.577 63.0333 159.057 62.7C158.55 62.3667 157.93 62.2 157.197 62.2C156.463 62.2 155.83 62.3667 155.297 62.7C154.763 63.0333 154.357 63.48 154.077 64.04C153.797 64.6 153.657 65.2267 153.657 65.92C153.657 66.6 153.797 67.2267 154.077 67.8C154.357 68.36 154.763 68.8067 155.297 69.14C155.83 69.4733 156.463 69.64 157.197 69.64ZM173.249 71V65.76L167.689 57.76H169.509L173.989 64.2L178.469 57.76H180.289L174.749 65.76V71H173.249ZM184.343 71.16C183.33 71.16 182.45 70.9333 181.703 70.48C180.956 70.0133 180.383 69.3867 179.983 68.6C179.583 67.8133 179.383 66.9467 179.383 66C179.383 65.04 179.583 64.1733 179.983 63.4C180.383 62.6133 180.956 61.9933 181.703 61.54C182.45 61.0733 183.33 60.84 184.343 60.84C185.37 60.84 186.25 61.0733 186.983 61.54C187.73 61.9933 188.303 62.6133 188.703 63.4C189.103 64.1733 189.303 65.04 189.303 66C189.303 66.9467 189.103 67.8133 188.703 68.6C188.303 69.3867 187.73 70.0133 186.983 70.48C186.25 70.9333 185.37 71.16 184.343 71.16ZM184.343 69.8C185.09 69.8 185.716 69.6267 186.223 69.28C186.743 68.9333 187.136 68.4733 187.403 67.9C187.67 67.3133 187.803 66.68 187.803 66C187.803 65.3067 187.67 64.6733 187.403 64.1C187.136 63.5267 186.743 63.0667 186.223 62.72C185.716 62.3733 185.09 62.2 184.343 62.2C183.61 62.2 182.983 62.3733 182.463 62.72C181.943 63.0667 181.55 63.5267 181.283 64.1C181.016 64.6733 180.883 65.3067 180.883 66C180.883 66.68 181.016 67.3133 181.283 67.9C181.55 68.4733 181.943 68.9333 182.463 69.28C182.983 69.6267 183.61 69.8 184.343 69.8ZM195.192 71.16C194.512 71.16 193.866 71 193.252 70.68C192.639 70.3467 192.139 69.86 191.752 69.22C191.379 68.5667 191.192 67.7667 191.192 66.82V61H192.692V66.78C192.692 67.6867 192.952 68.42 193.472 68.98C194.006 69.5267 194.679 69.8 195.492 69.8C196.052 69.8 196.559 69.6733 197.012 69.42C197.466 69.1533 197.826 68.7933 198.092 68.34C198.372 67.8867 198.512 67.36 198.512 66.76V61H200.012V71H198.512V69.44C198.152 69.92 197.712 70.3267 197.192 70.66C196.672 70.9933 196.006 71.16 195.192 71.16ZM202.62 71V61H204.12V63.46C204.174 63.2867 204.274 63.06 204.42 62.78C204.58 62.4867 204.807 62.1933 205.1 61.9C205.394 61.6067 205.76 61.36 206.2 61.16C206.654 60.9467 207.187 60.84 207.8 60.84H207.9V62.34H207.72C206.974 62.34 206.327 62.5467 205.78 62.96C205.247 63.36 204.834 63.8867 204.54 64.54C204.26 65.18 204.12 65.8667 204.12 66.6V71H202.62ZM214.093 71V57.76H220.033C221.073 57.76 221.893 57.94 222.493 58.3C223.106 58.66 223.546 59.1133 223.813 59.66C224.079 60.1933 224.213 60.7267 224.213 61.26C224.213 62.1133 224.033 62.7733 223.673 63.24C223.313 63.6933 222.899 64.0267 222.433 64.24C222.806 64.36 223.179 64.5533 223.553 64.82C223.939 65.0733 224.259 65.42 224.513 65.86C224.766 66.3 224.893 66.8533 224.893 67.52C224.893 68.5067 224.513 69.3333 223.753 70C223.006 70.6667 221.879 71 220.373 71H214.093ZM215.593 63.68H220.033C220.499 63.68 220.933 63.6 221.333 63.44C221.746 63.28 222.079 63.0333 222.333 62.7C222.586 62.3533 222.713 61.9133 222.713 61.38C222.713 61.0067 222.626 60.6533 222.453 60.32C222.293 59.9867 222.026 59.7133 221.653 59.5C221.293 59.2867 220.806 59.18 220.193 59.18H215.593V63.68ZM215.593 69.58H220.533C221.439 69.58 222.139 69.3933 222.633 69.02C223.139 68.6333 223.393 68.0933 223.393 67.4C223.393 66.7733 223.153 66.2267 222.673 65.76C222.193 65.28 221.426 65.04 220.373 65.04H215.593V69.58ZM230.915 71.16C230.235 71.16 229.588 71 228.975 70.68C228.362 70.3467 227.862 69.86 227.475 69.22C227.102 68.5667 226.915 67.7667 226.915 66.82V61H228.415V66.78C228.415 67.6867 228.675 68.42 229.195 68.98C229.728 69.5267 230.402 69.8 231.215 69.8C231.775 69.8 232.282 69.6733 232.735 69.42C233.188 69.1533 233.548 68.7933 233.815 68.34C234.095 67.8867 234.235 67.36 234.235 66.76V61H235.735V71H234.235V69.44C233.875 69.92 233.435 70.3267 232.915 70.66C232.395 70.9933 231.728 71.16 230.915 71.16ZM241.983 71.16C241.063 71.16 240.283 71.0067 239.643 70.7C239.016 70.3933 238.536 69.9933 238.203 69.5C237.87 68.9933 237.683 68.4467 237.643 67.86H239.203C239.243 68.1933 239.356 68.52 239.543 68.84C239.743 69.1467 240.043 69.4 240.443 69.6C240.843 69.7867 241.363 69.88 242.003 69.88C242.203 69.88 242.45 69.86 242.743 69.82C243.036 69.78 243.316 69.7067 243.583 69.6C243.863 69.4933 244.096 69.3333 244.283 69.12C244.47 68.9067 244.563 68.6333 244.563 68.3C244.563 67.8867 244.403 67.5667 244.083 67.34C243.763 67.1133 243.35 66.94 242.843 66.82C242.336 66.6867 241.796 66.56 241.223 66.44C240.663 66.32 240.13 66.1667 239.623 65.98C239.116 65.78 238.703 65.5067 238.383 65.16C238.063 64.8 237.903 64.3133 237.903 63.7C237.903 62.7933 238.23 62.0933 238.883 61.6C239.55 61.0933 240.53 60.84 241.823 60.84C242.703 60.84 243.416 60.98 243.963 61.26C244.523 61.5267 244.943 61.8733 245.223 62.3C245.516 62.7267 245.69 63.1867 245.743 63.68H244.223C244.17 63.2533 243.956 62.8867 243.583 62.58C243.223 62.2733 242.623 62.12 241.783 62.12C240.196 62.12 239.403 62.6 239.403 63.56C239.403 63.96 239.563 64.2667 239.883 64.48C240.203 64.6933 240.616 64.8667 241.123 65C241.63 65.12 242.163 65.24 242.723 65.36C243.296 65.4667 243.836 65.62 244.343 65.82C244.85 66.02 245.263 66.3067 245.583 66.68C245.903 67.04 246.063 67.5333 246.063 68.16C246.063 69.1333 245.69 69.88 244.943 70.4C244.21 70.9067 243.223 71.16 241.983 71.16ZM247.931 59.32V57.36H249.551V59.32H247.931ZM247.991 71V61H249.491V71H247.991ZM252.093 71V61H253.593V62.56C253.953 62.08 254.393 61.6733 254.913 61.34C255.433 61.0067 256.1 60.84 256.913 60.84C257.606 60.84 258.253 61.0067 258.853 61.34C259.466 61.66 259.96 62.1467 260.333 62.8C260.72 63.44 260.913 64.2333 260.913 65.18V71H259.413V65.22C259.413 64.3133 259.153 63.5867 258.633 63.04C258.113 62.48 257.44 62.2 256.613 62.2C256.053 62.2 255.546 62.3267 255.093 62.58C254.64 62.8333 254.273 63.1933 253.993 63.66C253.726 64.1133 253.593 64.64 253.593 65.24V71H252.093ZM267.861 71.16C266.848 71.16 265.961 70.9333 265.201 70.48C264.441 70.0133 263.848 69.3867 263.421 68.6C263.008 67.8133 262.801 66.9467 262.801 66C262.801 65.04 263.001 64.1733 263.401 63.4C263.801 62.6133 264.374 61.9933 265.121 61.54C265.868 61.0733 266.748 60.84 267.761 60.84C268.788 60.84 269.668 61.0733 270.401 61.54C271.148 61.9933 271.721 62.6133 272.121 63.4C272.521 64.1733 272.721 65.04 272.721 66V66.6H264.341C264.421 67.1867 264.608 67.7267 264.901 68.22C265.208 68.7 265.614 69.0867 266.121 69.38C266.628 69.66 267.214 69.8 267.881 69.8C268.588 69.8 269.181 69.6467 269.661 69.34C270.141 69.02 270.514 68.6133 270.781 68.12H272.421C272.074 69.0133 271.521 69.7467 270.761 70.32C270.014 70.88 269.048 71.16 267.861 71.16ZM264.361 65.2H271.161C271.028 64.3467 270.668 63.6333 270.081 63.06C269.494 62.4867 268.721 62.2 267.761 62.2C266.801 62.2 266.028 62.4867 265.441 63.06C264.868 63.6333 264.508 64.3467 264.361 65.2ZM278.194 71.16C277.274 71.16 276.494 71.0067 275.854 70.7C275.227 70.3933 274.747 69.9933 274.414 69.5C274.081 68.9933 273.894 68.4467 273.854 67.86H275.414C275.454 68.1933 275.567 68.52 275.754 68.84C275.954 69.1467 276.254 69.4 276.654 69.6C277.054 69.7867 277.574 69.88 278.214 69.88C278.414 69.88 278.661 69.86 278.954 69.82C279.247 69.78 279.527 69.7067 279.794 69.6C280.074 69.4933 280.307 69.3333 280.494 69.12C280.681 68.9067 280.774 68.6333 280.774 68.3C280.774 67.8867 280.614 67.5667 280.294 67.34C279.974 67.1133 279.561 66.94 279.054 66.82C278.547 66.6867 278.007 66.56 277.434 66.44C276.874 66.32 276.341 66.1667 275.834 65.98C275.327 65.78 274.914 65.5067 274.594 65.16C274.274 64.8 274.114 64.3133 274.114 63.7C274.114 62.7933 274.441 62.0933 275.094 61.6C275.761 61.0933 276.741 60.84 278.034 60.84C278.914 60.84 279.627 60.98 280.174 61.26C280.734 61.5267 281.154 61.8733 281.434 62.3C281.727 62.7267 281.901 63.1867 281.954 63.68H280.434C280.381 63.2533 280.167 62.8867 279.794 62.58C279.434 62.2733 278.834 62.12 277.994 62.12C276.407 62.12 275.614 62.6 275.614 63.56C275.614 63.96 275.774 64.2667 276.094 64.48C276.414 64.6933 276.827 64.8667 277.334 65C277.841 65.12 278.374 65.24 278.934 65.36C279.507 65.4667 280.047 65.62 280.554 65.82C281.061 66.02 281.474 66.3067 281.794 66.68C282.114 67.04 282.274 67.5333 282.274 68.16C282.274 69.1333 281.901 69.88 281.154 70.4C280.421 70.9067 279.434 71.16 278.194 71.16ZM287.842 71.16C286.922 71.16 286.142 71.0067 285.502 70.7C284.876 70.3933 284.396 69.9933 284.062 69.5C283.729 68.9933 283.542 68.4467 283.502 67.86H285.062C285.102 68.1933 285.216 68.52 285.402 68.84C285.602 69.1467 285.902 69.4 286.302 69.6C286.702 69.7867 287.222 69.88 287.862 69.88C288.062 69.88 288.309 69.86 288.602 69.82C288.896 69.78 289.176 69.7067 289.442 69.6C289.722 69.4933 289.956 69.3333 290.142 69.12C290.329 68.9067 290.422 68.6333 290.422 68.3C290.422 67.8867 290.262 67.5667 289.942 67.34C289.622 67.1133 289.209 66.94 288.702 66.82C288.196 66.6867 287.656 66.56 287.082 66.44C286.522 66.32 285.989 66.1667 285.482 65.98C284.976 65.78 284.562 65.5067 284.242 65.16C283.922 64.8 283.762 64.3133 283.762 63.7C283.762 62.7933 284.089 62.0933 284.742 61.6C285.409 61.0933 286.389 60.84 287.682 60.84C288.562 60.84 289.276 60.98 289.822 61.26C290.382 61.5267 290.802 61.8733 291.082 62.3C291.376 62.7267 291.549 63.1867 291.602 63.68H290.082C290.029 63.2533 289.816 62.8867 289.442 62.58C289.082 62.2733 288.482 62.12 287.642 62.12C286.056 62.12 285.262 62.6 285.262 63.56C285.262 63.96 285.422 64.2667 285.742 64.48C286.062 64.6933 286.476 64.8667 286.982 65C287.489 65.12 288.022 65.24 288.582 65.36C289.156 65.4667 289.696 65.62 290.202 65.82C290.709 66.02 291.122 66.3067 291.442 66.68C291.762 67.04 291.922 67.5333 291.922 68.16C291.922 69.1333 291.549 69.88 290.802 70.4C290.069 70.9067 289.082 71.16 287.842 71.16ZM298.429 71V57.76H304.389C305.802 57.76 306.915 58.1467 307.729 58.92C308.542 59.68 308.949 60.7133 308.949 62.02C308.949 63.3267 308.542 64.3667 307.729 65.14C306.915 65.9 305.802 66.28 304.389 66.28H299.929V71H298.429ZM299.929 64.88H304.289C305.329 64.88 306.115 64.6267 306.649 64.12C307.182 63.6133 307.449 62.9133 307.449 62.02C307.449 61.14 307.182 60.4467 306.649 59.94C306.115 59.4333 305.329 59.18 304.289 59.18H299.929V64.88ZM310.607 59.32V57.36H312.227V59.32H310.607ZM310.667 71V61H312.167V71H310.667ZM313.549 71L317.409 65.84L313.789 61H315.709L318.289 64.78L320.849 61H322.769L319.149 65.84L323.029 71H321.109L318.289 66.92L315.449 71H313.549ZM328.428 71.16C327.414 71.16 326.528 70.9333 325.768 70.48C325.008 70.0133 324.414 69.3867 323.988 68.6C323.574 67.8133 323.368 66.9467 323.368 66C323.368 65.04 323.568 64.1733 323.968 63.4C324.368 62.6133 324.941 61.9933 325.688 61.54C326.434 61.0733 327.314 60.84 328.328 60.84C329.354 60.84 330.234 61.0733 330.968 61.54C331.714 61.9933 332.288 62.6133 332.688 63.4C333.088 64.1733 333.288 65.04 333.288 66V66.6H324.908C324.988 67.1867 325.174 67.7267 325.468 68.22C325.774 68.7 326.181 69.0867 326.688 69.38C327.194 69.66 327.781 69.8 328.448 69.8C329.154 69.8 329.748 69.6467 330.228 69.34C330.708 69.02 331.081 68.6133 331.348 68.12H332.988C332.641 69.0133 332.088 69.7467 331.328 70.32C330.581 70.88 329.614 71.16 328.428 71.16ZM324.928 65.2H331.728C331.594 64.3467 331.234 63.6333 330.648 63.06C330.061 62.4867 329.288 62.2 328.328 62.2C327.368 62.2 326.594 62.4867 326.008 63.06C325.434 63.6333 325.074 64.3467 324.928 65.2ZM335.12 71V57H336.62V71H335.12ZM343.8 71V57.76H349.76C351.173 57.76 352.286 58.1467 353.1 58.92C353.913 59.68 354.32 60.7133 354.32 62.02C354.32 63.3267 353.913 64.3667 353.1 65.14C352.286 65.9 351.173 66.28 349.76 66.28H345.3V71H343.8ZM345.3 64.88H349.66C350.7 64.88 351.486 64.6267 352.02 64.12C352.553 63.6133 352.82 62.9133 352.82 62.02C352.82 61.14 352.553 60.4467 352.02 59.94C351.486 59.4333 350.7 59.18 349.66 59.18H345.3V64.88ZM360.478 71.16C359.465 71.16 358.578 70.9333 357.818 70.48C357.058 70.0133 356.465 69.3867 356.038 68.6C355.625 67.8133 355.418 66.9467 355.418 66C355.418 65.04 355.618 64.1733 356.018 63.4C356.418 62.6133 356.992 61.9933 357.738 61.54C358.485 61.0733 359.365 60.84 360.378 60.84C361.405 60.84 362.285 61.0733 363.018 61.54C363.765 61.9933 364.338 62.6133 364.738 63.4C365.138 64.1733 365.338 65.04 365.338 66V66.6H356.958C357.038 67.1867 357.225 67.7267 357.518 68.22C357.825 68.7 358.232 69.0867 358.738 69.38C359.245 69.66 359.832 69.8 360.498 69.8C361.205 69.8 361.798 69.6467 362.278 69.34C362.758 69.02 363.132 68.6133 363.398 68.12H365.038C364.692 69.0133 364.138 69.7467 363.378 70.32C362.632 70.88 361.665 71.16 360.478 71.16ZM356.978 65.2H363.778C363.645 64.3467 363.285 63.6333 362.698 63.06C362.112 62.4867 361.338 62.2 360.378 62.2C359.418 62.2 358.645 62.4867 358.058 63.06C357.485 63.6333 357.125 64.3467 356.978 65.2ZM367.171 71V61H368.671V63.46C368.724 63.2867 368.824 63.06 368.971 62.78C369.131 62.4867 369.358 62.1933 369.651 61.9C369.944 61.6067 370.311 61.36 370.751 61.16C371.204 60.9467 371.738 60.84 372.351 60.84H372.451V62.34H372.271C371.524 62.34 370.878 62.5467 370.331 62.96C369.798 63.36 369.384 63.8867 369.091 64.54C368.811 65.18 368.671 65.8667 368.671 66.6V71H367.171ZM374.746 71V62.32H373.026V61H374.746V60.12C374.746 59.0267 375.072 58.2067 375.726 57.66C376.392 57.1133 377.299 56.84 378.446 56.84H378.566V58.26H378.366C377.672 58.26 377.146 58.42 376.786 58.74C376.426 59.0467 376.246 59.5467 376.246 60.24V61H378.566V62.32H376.246V71H374.746ZM384.443 71.16C383.43 71.16 382.543 70.9333 381.783 70.48C381.023 70.0133 380.43 69.3867 380.003 68.6C379.59 67.8133 379.383 66.9467 379.383 66C379.383 65.04 379.583 64.1733 379.983 63.4C380.383 62.6133 380.956 61.9933 381.703 61.54C382.45 61.0733 383.33 60.84 384.343 60.84C385.37 60.84 386.25 61.0733 386.983 61.54C387.73 61.9933 388.303 62.6133 388.703 63.4C389.103 64.1733 389.303 65.04 389.303 66V66.6H380.923C381.003 67.1867 381.19 67.7267 381.483 68.22C381.79 68.7 382.196 69.0867 382.703 69.38C383.21 69.66 383.796 69.8 384.463 69.8C385.17 69.8 385.763 69.6467 386.243 69.34C386.723 69.02 387.096 68.6133 387.363 68.12H389.003C388.656 69.0133 388.103 69.7467 387.343 70.32C386.596 70.88 385.63 71.16 384.443 71.16ZM380.943 65.2H387.743C387.61 64.3467 387.25 63.6333 386.663 63.06C386.076 62.4867 385.303 62.2 384.343 62.2C383.383 62.2 382.61 62.4867 382.023 63.06C381.45 63.6333 381.09 64.3467 380.943 65.2ZM395.436 71.16C394.436 71.16 393.569 70.9333 392.836 70.48C392.103 70.0133 391.529 69.3867 391.116 68.6C390.716 67.8133 390.516 66.9467 390.516 66C390.516 65.04 390.716 64.1733 391.116 63.4C391.529 62.6133 392.103 61.9933 392.836 61.54C393.569 61.0733 394.436 60.84 395.436 60.84C396.623 60.84 397.629 61.1467 398.456 61.76C399.296 62.3733 399.863 63.1667 400.156 64.14H398.536C398.309 63.5667 397.943 63.1 397.436 62.74C396.943 62.38 396.343 62.2 395.636 62.2C394.903 62.2 394.263 62.3733 393.716 62.72C393.169 63.0667 392.749 63.5267 392.456 64.1C392.163 64.6733 392.016 65.3067 392.016 66C392.016 66.68 392.163 67.3133 392.456 67.9C392.749 68.4733 393.169 68.9333 393.716 69.28C394.263 69.6267 394.903 69.8 395.636 69.8C396.343 69.8 396.943 69.62 397.436 69.26C397.943 68.9 398.309 68.4333 398.536 67.86H400.156C399.863 68.8333 399.296 69.6267 398.456 70.24C397.629 70.8533 396.623 71.16 395.436 71.16ZM403.095 71V62.32H401.055V61H403.095V57.42H404.595V61H406.895V62.32H404.595V71H403.095Z" fill="white"/>
</svg>
